<svg width="300" height="300" viewBox="0 0 300 300" fill="none" xmlns="http://www.w3.org/2000/svg">
<rect width="300" height="300" rx="150" fill="#78BE41"/>
<path d="M216.625 86L82.375 86C70.0184 86 60 95.552 60 107.333L60 192.667C60 204.448 70.0184 214 82.375 214L216.625 214C228.982 214 239 204.448 239 192.667V107.333C239 95.552 228.982 86 216.625 86ZM179.796 142.927L227.157 104.229C227.485 105.229 227.812 106.229 227.812 107.333V192.667C227.812 193.406 227.517 194.063 227.365 194.76L179.796 142.927ZM216.625 96.6667C217.368 96.6667 218.023 96.9377 218.723 97.073L149.5 153.646L80.2773 97.073C80.9766 96.9377 81.6321 96.6667 82.375 96.6667L216.625 96.6667ZM71.6301 194.75C71.477 194.052 71.1875 193.406 71.1875 192.667L71.1875 107.333C71.1875 106.229 71.5207 105.229 71.8486 104.229L119.193 142.917L71.6301 194.75ZM82.375 203.333C81.2444 203.333 80.2172 203.021 79.1848 202.719L127.693 149.864L145.862 164.708C146.905 165.573 148.205 166 149.5 166C150.795 166 152.095 165.573 153.138 164.708L171.307 149.865L219.815 202.719C218.788 203.021 217.761 203.333 216.625 203.333H82.375Z" fill="white"/>
</svg>
