<svg width="2480" height="3513" viewBox="0 0 2480 3513" fill="none" xmlns="http://www.w3.org/2000/svg">
<g clip-path="url(#clip0_109_4)">
<rect width="2480" height="3513" rx="40" fill="#BF985C"/>
<rect x="51" y="52" width="2378" height="3409" rx="40" fill="#323232"/>
<path d="M488.228 1816.49V1827H373.716V1816.49H488.228ZM376.419 1816.49V1862.33H364.207V1816.49H376.419ZM498.838 1816.49L498.738 1862.33H486.426V1816.49H498.838ZM473.414 1681.26V1691.87H407.149V1681.26H473.414ZM483.223 1681.26V1827H471.011V1681.26H483.223ZM402.745 1681.26H415.057L412.454 1733.81C411.987 1743.22 411.053 1751.93 409.651 1759.93C408.317 1767.94 406.648 1775.28 404.646 1781.96C402.645 1788.63 400.442 1794.6 398.04 1799.87C395.638 1805.08 393.135 1809.58 390.533 1813.39C387.93 1817.12 385.294 1820.16 382.625 1822.5C380.022 1824.76 377.52 1826.27 375.118 1827H367.51V1816.49H373.917C375.518 1814.82 377.62 1812.09 380.223 1808.28C382.825 1804.41 385.494 1799.24 388.23 1792.77C391.033 1786.23 393.502 1778.12 395.638 1768.44C397.84 1758.7 399.341 1747.16 400.142 1733.81L402.745 1681.26ZM573.411 1767.64H531.871V1757.13H573.411C582.086 1757.13 589.126 1755.73 594.532 1752.93C600.004 1750.06 603.974 1746.19 606.443 1741.32C608.979 1736.44 610.247 1730.97 610.247 1724.9C610.247 1718.96 608.979 1713.49 606.443 1708.48C603.974 1703.48 600.004 1699.48 594.532 1696.47C589.126 1693.4 582.086 1691.87 573.411 1691.87H536.175V1827H523.863V1681.26H573.411C584.088 1681.26 593.064 1683.09 600.337 1686.76C607.678 1690.43 613.217 1695.54 616.954 1702.08C620.691 1708.62 622.559 1716.16 622.559 1724.7C622.559 1733.64 620.691 1741.35 616.954 1747.82C613.217 1754.23 607.711 1759.13 600.438 1762.54C593.164 1765.94 584.155 1767.64 573.411 1767.64ZM697.332 1777.95L740.274 1681.26H754.688L698.934 1801.98C697.599 1804.78 696.031 1807.78 694.229 1810.98C692.427 1814.12 690.192 1817.06 687.522 1819.79C684.853 1822.53 681.583 1824.76 677.713 1826.5C673.842 1828.23 669.104 1829.1 663.499 1829.1C662.098 1829.1 660.396 1829 658.394 1828.8C656.392 1828.6 654.991 1828.33 654.19 1828L655.191 1817.79C656.058 1817.99 657.36 1818.19 659.095 1818.39C660.896 1818.53 662.398 1818.59 663.599 1818.59C667.937 1818.59 671.54 1817.66 674.41 1815.79C677.279 1813.92 679.715 1811.52 681.717 1808.58C683.719 1805.58 685.521 1802.44 687.122 1799.17L697.332 1777.95ZM651.287 1681.26L700.235 1777.45L704.039 1788.36L693.528 1790.46L637.173 1681.26H651.287ZM866.797 1681.26V1691.87H791.224V1827H779.012V1681.26H866.797ZM904.734 1805.58L987.715 1681.26H1000.03V1827H987.715V1702.48L904.734 1827H892.422V1681.26H904.734V1805.58ZM1128.35 1816.49V1827H1046.37V1816.49H1128.35ZM1050.08 1681.26V1827H1037.76V1681.26H1050.08ZM1118.14 1746.62V1757.13H1046.37V1746.62H1118.14ZM1127.85 1681.26V1691.87H1046.37V1681.26H1127.85ZM1312.03 1681.26V1827H1299.82V1691.87H1217.24V1827H1204.93V1681.26H1312.03ZM1397.52 1689.97L1347.07 1827H1334.25L1389.31 1681.26H1398.22L1397.52 1689.97ZM1443.36 1827L1392.81 1689.97L1392.11 1681.26H1401.02L1456.17 1827H1443.36ZM1434.35 1775.55V1786.16H1356.98V1775.55H1434.35ZM1513.63 1681.26V1827H1501.42V1681.26H1513.63ZM1563.58 1681.26V1691.87H1451.57V1681.26H1563.58ZM1677.89 1816.49V1827H1595.91V1816.49H1677.89ZM1599.61 1681.26V1827H1587.3V1681.26H1599.61ZM1667.68 1746.62V1757.13H1595.91V1746.62H1667.68ZM1677.39 1681.26V1691.87H1595.91V1681.26H1677.39ZM1802.01 1746.62V1757.13H1713.42V1746.62H1802.01ZM1716.33 1681.26V1827H1704.01V1681.26H1716.33ZM1811.92 1681.26V1827H1799.61V1681.26H1811.92ZM1895 1681.26V1827H1882.79V1681.26H1895ZM1944.95 1681.26V1691.87H1832.94V1681.26H1944.95ZM1976.68 1744.42H2017.12C2027.66 1744.42 2036.51 1746.15 2043.65 1749.62C2050.85 1753.03 2056.26 1757.83 2059.86 1764.04C2063.53 1770.18 2065.37 1777.35 2065.37 1785.56C2065.37 1791.63 2064.33 1797.2 2062.26 1802.28C2060.19 1807.35 2057.13 1811.75 2053.05 1815.49C2048.98 1819.16 2043.95 1822 2037.94 1824C2031.93 1826 2024.99 1827 2017.12 1827H1968.77V1681.26H1981.08V1816.49H2017.12C2025.59 1816.49 2032.47 1815.06 2037.74 1812.19C2043.01 1809.25 2046.88 1805.41 2049.35 1800.67C2051.82 1795.94 2053.05 1790.83 2053.05 1785.36C2053.05 1779.95 2051.82 1774.95 2049.35 1770.34C2046.88 1765.74 2043.01 1762.04 2037.74 1759.23C2032.47 1756.36 2025.59 1754.93 2017.12 1754.93H1976.68V1744.42ZM2101.9 1681.26V1827H2089.59V1681.26H2101.9Z" fill="#BF985C"/>
</g>
<defs>
<clipPath id="clip0_109_4">
<rect width="2480" height="3513" fill="white"/>
</clipPath>
</defs>
</svg>
